<?xml version="1.0" encoding="utf-8"?>
<!-- Generator: Adobe Illustrator 26.5.0, SVG Export Plug-In . SVG Version: 6.00 Build 0)  -->
<svg version="1.1" id="Lager_1" xmlns="http://www.w3.org/2000/svg" xmlns:xlink="http://www.w3.org/1999/xlink" x="0px" y="0px"
	 viewBox="0 0 143 161.5" style="enable-background:new 0 0 143 161.5;" xml:space="preserve">
<g>
	<g>
		<g>
			<path d="M52.63,97.81c-4.04,0-7.31-3.27-7.31-7.31c0-4.04,3.27-7.31,7.31-7.31c4.04,0,7.31,3.27,7.31,7.31
				C59.94,94.53,56.67,97.81,52.63,97.81z"/>
		</g>
		<g>
			<path d="M34.76,97.81c-4.04,0-7.31-3.27-7.31-7.31c0-4.04,3.27-7.31,7.31-7.31s7.31,3.27,7.31,7.31
				C42.07,94.53,38.8,97.81,34.76,97.81z"/>
		</g>
		<g>
			<path d="M33.14,115.68c-4.04,0-7.31-3.27-7.31-7.31c0-4.04,3.27-7.31,7.31-7.31c4.04,0,7.31,3.27,7.31,7.31
				C40.45,112.4,37.17,115.68,33.14,115.68z"/>
		</g>
		<g>
			<path d="M16.89,97.81c-4.04,0-7.31-3.27-7.31-7.31c0-4.04,3.27-7.31,7.31-7.31c4.04,0,7.31,3.27,7.31,7.31
				C24.2,94.53,20.93,97.81,16.89,97.81z"/>
		</g>
		<g>
			<path d="M124.11,97.81c-4.04,0-7.31-3.27-7.31-7.31c0-4.04,3.27-7.31,7.31-7.31c4.04,0,7.31,3.27,7.31,7.31
				C131.42,94.53,128.15,97.81,124.11,97.81z"/>
		</g>
		<g>
			<path d="M70.5,97.81c-4.04,0-7.31-3.27-7.31-7.31c0-4.04,3.27-7.31,7.31-7.31c4.04,0,7.31,3.27,7.31,7.31
				C77.81,94.53,74.54,97.81,70.5,97.81z"/>
		</g>
		<g>
			<path d="M69.69,115.68c-4.04,0-7.31-3.27-7.31-7.31c0-4.04,3.27-7.31,7.31-7.31c4.04,0,7.31,3.27,7.31,7.31
				C77,112.4,73.73,115.68,69.69,115.68z"/>
		</g>
		<g>
			<path d="M51.41,115.68c-4.04,0-7.31-3.27-7.31-7.31c0-4.04,3.27-7.31,7.31-7.31c4.04,0,7.31,3.27,7.31,7.31
				C58.72,112.4,55.45,115.68,51.41,115.68z"/>
		</g>
		<g>
			<path d="M88.37,97.81c-4.04,0-7.31-3.27-7.31-7.31c0-4.04,3.27-7.31,7.31-7.31c4.04,0,7.31,3.27,7.31,7.31
				C95.68,94.53,92.41,97.81,88.37,97.81z"/>
		</g>
		<g>
			<path d="M87.96,115.68c-4.04,0-7.31-3.27-7.31-7.31c0-4.04,3.27-7.31,7.31-7.31c4.04,0,7.31,3.27,7.31,7.31
				C95.27,112.4,92,115.68,87.96,115.68z"/>
		</g>
		<g>
			<path d="M106.24,97.81c-4.04,0-7.31-3.27-7.31-7.31c0-4.04,3.27-7.31,7.31-7.31c4.04,0,7.31,3.27,7.31,7.31
				C113.55,94.53,110.28,97.81,106.24,97.81z"/>
		</g>
		<g>
			<path d="M106.24,115.68c-4.04,0-7.31-3.27-7.31-7.31c0-4.04,3.27-7.31,7.31-7.31c4.04,0,7.31,3.27,7.31,7.31
				C113.55,112.4,110.28,115.68,106.24,115.68z"/>
		</g>
		<g>
			<path d="M70.5,133.54c-4.04,0-7.31-3.27-7.31-7.31c0-4.04,3.27-7.31,7.31-7.31c4.04,0,7.31,3.27,7.31,7.31
				C77.81,130.27,74.54,133.54,70.5,133.54z"/>
		</g>
		<g>
			<path d="M52.63,133.54c-4.04,0-7.31-3.27-7.31-7.31c0-4.04,3.27-7.31,7.31-7.31c4.04,0,7.31,3.27,7.31,7.31
				C59.94,130.27,56.67,133.54,52.63,133.54z"/>
		</g>
		<g>
			<path d="M70.5,151.42c-4.04,0-7.31-3.27-7.31-7.31c0-4.04,3.27-7.31,7.31-7.31c4.04,0,7.31,3.27,7.31,7.31
				C77.81,148.14,74.54,151.42,70.5,151.42z"/>
		</g>
		<g>
			<path d="M88.37,133.54c-4.04,0-7.31-3.27-7.31-7.31c0-4.04,3.27-7.31,7.31-7.31c4.04,0,7.31,3.27,7.31,7.31
				C95.68,130.27,92.41,133.54,88.37,133.54z"/>
		</g>
	</g>
	<g>
		<g>
			<path d="M52.63,26.21c-4.04,0-7.31-3.27-7.31-7.31c0-4.04,3.27-7.31,7.31-7.31c4.04,0,7.31,3.27,7.31,7.31
				C59.94,22.93,56.67,26.21,52.63,26.21z"/>
		</g>
		<g>
			<path d="M34.76,26.21c-4.04,0-7.31-3.27-7.31-7.31c0-4.04,3.27-7.31,7.31-7.31s7.31,3.27,7.31,7.31
				C42.07,22.93,38.8,26.21,34.76,26.21z"/>
		</g>
		<g>
			<path d="M33.14,44.08c-4.04,0-7.31-3.27-7.31-7.31s3.27-7.31,7.31-7.31c4.04,0,7.31,3.27,7.31,7.31S37.17,44.08,33.14,44.08z"/>
		</g>
		<g>
			<path d="M16.89,26.21c-4.04,0-7.31-3.27-7.31-7.31c0-4.04,3.27-7.31,7.31-7.31c4.04,0,7.31,3.27,7.31,7.31
				C24.2,22.93,20.93,26.21,16.89,26.21z"/>
		</g>
		<g>
			<path d="M124.11,26.21c-4.04,0-7.31-3.27-7.31-7.31c0-4.04,3.27-7.31,7.31-7.31c4.04,0,7.31,3.27,7.31,7.31
				C131.42,22.93,128.15,26.21,124.11,26.21z"/>
		</g>
		<g>
			<path d="M70.5,26.21c-4.04,0-7.31-3.27-7.31-7.31c0-4.04,3.27-7.31,7.31-7.31c4.04,0,7.31,3.27,7.31,7.31
				C77.81,22.93,74.54,26.21,70.5,26.21z"/>
		</g>
		<g>
			<path d="M69.69,44.08c-4.04,0-7.31-3.27-7.31-7.31s3.27-7.31,7.31-7.31c4.04,0,7.31,3.27,7.31,7.31S73.73,44.08,69.69,44.08z"/>
		</g>
		<g>
			<path d="M51.41,44.08c-4.04,0-7.31-3.27-7.31-7.31s3.27-7.31,7.31-7.31c4.04,0,7.31,3.27,7.31,7.31S55.45,44.08,51.41,44.08z"/>
		</g>
		<g>
			<path d="M88.37,26.21c-4.04,0-7.31-3.27-7.31-7.31c0-4.04,3.27-7.31,7.31-7.31c4.04,0,7.31,3.27,7.31,7.31
				C95.68,22.93,92.41,26.21,88.37,26.21z"/>
		</g>
		<g>
			<path d="M87.96,44.08c-4.04,0-7.31-3.27-7.31-7.31s3.27-7.31,7.31-7.31c4.04,0,7.31,3.27,7.31,7.31S92,44.08,87.96,44.08z"/>
		</g>
		<g>
			<path d="M106.24,26.21c-4.04,0-7.31-3.27-7.31-7.31c0-4.04,3.27-7.31,7.31-7.31c4.04,0,7.31,3.27,7.31,7.31
				C113.55,22.93,110.28,26.21,106.24,26.21z"/>
		</g>
		<g>
			<path d="M106.24,44.08c-4.04,0-7.31-3.27-7.31-7.31s3.27-7.31,7.31-7.31c4.04,0,7.31,3.27,7.31,7.31S110.28,44.08,106.24,44.08z"
				/>
		</g>
		<g>
			<path d="M70.5,61.95c-4.04,0-7.31-3.27-7.31-7.31c0-4.04,3.27-7.31,7.31-7.31c4.04,0,7.31,3.27,7.31,7.31
				C77.81,58.67,74.54,61.95,70.5,61.95z"/>
		</g>
		<g>
			<path d="M52.63,61.95c-4.04,0-7.31-3.27-7.31-7.31c0-4.04,3.27-7.31,7.31-7.31c4.04,0,7.31,3.27,7.31,7.31
				C59.94,58.67,56.67,61.95,52.63,61.95z"/>
		</g>
		<g>
			<path d="M70.5,79.81c-4.04,0-7.31-3.27-7.31-7.31c0-4.04,3.27-7.31,7.31-7.31c4.04,0,7.31,3.27,7.31,7.31
				C77.81,76.54,74.54,79.81,70.5,79.81z"/>
		</g>
		<g>
			<path d="M88.37,61.95c-4.04,0-7.31-3.27-7.31-7.31c0-4.04,3.27-7.31,7.31-7.31c4.04,0,7.31,3.27,7.31,7.31
				C95.68,58.67,92.41,61.95,88.37,61.95z"/>
		</g>
	</g>
</g>
</svg>
